<svg width="225" height="250" viewBox="0 0 225 250" fill="none" xmlns="http://www.w3.org/2000/svg">
<path d="M200.518 88.2421C198.021 87.3893 195.506 86.595 192.974 85.8593C193.394 84.1503 193.781 82.4316 194.136 80.7031C199.849 52.9199 196.113 30.5371 183.364 23.1689C171.157 16.0986 151.138 23.4667 130.942 41.0839C128.957 42.8222 127.012 44.6126 125.107 46.455C123.838 45.2311 122.536 44.0332 121.201 42.8613C100.034 24.0234 78.8184 16.0888 66.084 23.4814C53.877 30.5664 50.249 51.6064 55.3906 77.9394C55.9049 80.5436 56.4827 83.1363 57.124 85.7177C54.2059 86.545 51.3124 87.4568 48.4473 88.4521C23.6621 97.1191 7.8125 110.708 7.8125 124.8C7.8125 139.36 24.8242 153.96 50.6689 162.812C52.7653 163.525 54.8812 164.188 57.0166 164.8C56.3232 167.563 55.7096 170.358 55.1758 173.184C50.293 199.062 54.1016 219.604 66.2842 226.645C78.8672 233.916 99.9756 226.445 120.552 208.428C122.179 207.002 123.807 205.496 125.435 203.911C127.492 205.9 129.608 207.83 131.782 209.702C151.704 226.88 171.377 233.818 183.54 226.758C196.113 219.463 200.2 197.393 194.893 170.542C194.486 168.491 194.017 166.398 193.486 164.263C194.971 163.823 196.424 163.369 197.847 162.9C224.702 153.979 242.197 139.556 242.197 124.814C242.188 110.654 225.83 96.9775 200.518 88.2421ZM137.529 48.6523C154.829 33.5595 171.001 27.6025 178.374 31.8603C186.221 36.3964 189.272 54.6875 184.341 78.6767C184.015 80.2392 183.664 81.7968 183.286 83.3496C172.962 81.0013 162.493 79.344 151.948 78.3886C145.911 69.6917 139.293 61.4128 132.139 53.6084C133.89 51.9091 135.684 50.2571 137.52 48.6523H137.529ZM77.0166 136.841C79.1357 140.942 81.3509 144.993 83.6621 148.994C86.0156 153.076 88.4684 157.098 91.0205 161.06C83.765 160.271 76.5549 159.109 69.4189 157.578C71.4893 150.879 74.0381 143.921 77.0166 136.841ZM77.0166 113.242C74.0869 106.313 71.6064 99.497 69.5703 92.915C76.2598 91.416 83.3887 90.1904 90.8203 89.2626C88.3301 93.1494 85.9342 97.093 83.6328 101.094C81.3314 105.094 79.1211 109.144 77.002 113.242H77.0166ZM82.3389 125.044C85.4248 118.608 88.7484 112.296 92.3096 106.108C95.8675 99.9234 99.655 93.8801 103.672 87.9785C110.645 87.4511 117.793 87.1728 125.015 87.1728C132.236 87.1728 139.429 87.4511 146.396 87.9833C150.371 93.872 154.136 99.8942 157.69 106.05C161.245 112.205 164.613 118.488 167.793 124.897C164.655 131.356 161.296 137.694 157.715 143.911C154.163 150.096 150.42 156.157 146.484 162.095C139.526 162.583 132.324 162.852 125 162.852C117.676 162.852 110.61 162.622 103.779 162.178C99.7331 156.256 95.9147 150.187 92.3242 143.97C88.7337 137.752 85.4004 131.444 82.3242 125.044H82.3389ZM166.382 148.926C168.742 144.831 171.007 140.682 173.179 136.479C176.155 143.228 178.782 150.125 181.05 157.144C173.83 158.769 166.53 160.016 159.18 160.879C161.66 156.943 164.061 152.959 166.382 148.926ZM173.081 113.247C170.92 109.129 168.672 105.06 166.338 101.04C164.059 97.0751 161.685 93.1591 159.214 89.2919C166.689 90.2392 173.862 91.499 180.586 93.0371C178.424 99.8951 175.919 106.64 173.081 113.247ZM125.112 60.7812C129.988 66.1088 134.592 71.6791 138.906 77.4707C129.678 77.0312 120.443 77.0312 111.201 77.4707C115.757 71.4453 120.42 65.8544 125.112 60.7812ZM71.123 32.1582C78.9648 27.6074 96.3037 34.1113 114.58 50.3564C115.747 51.3964 116.924 52.4853 118.096 53.6132C110.905 61.4165 104.24 69.6883 98.1445 78.374C87.6233 79.3219 77.1748 80.953 66.8652 83.2568C66.2695 80.8609 65.7324 78.4488 65.2539 76.0205C60.835 53.4472 63.7598 36.4306 71.123 32.1582ZM59.6924 155.132C57.7393 154.575 55.8105 153.971 53.9062 153.32C42.4805 149.414 33.042 144.316 26.5625 138.765C20.7617 133.789 17.8223 128.823 17.8223 124.8C17.8223 116.25 30.5469 105.342 51.7676 97.9443C54.4336 97.0165 57.1224 96.1686 59.834 95.4003C62.9856 105.529 66.8025 115.438 71.2598 125.063C66.7494 134.822 62.8852 144.866 59.6924 155.132ZM113.955 200.869C104.858 208.838 95.7471 214.487 87.7148 217.334C80.498 219.888 74.751 219.961 71.2793 217.954C63.8867 213.682 60.8106 197.183 65.0049 175.054C65.5029 172.45 66.0726 169.845 66.7139 167.241C77.1266 169.484 87.68 171.016 98.3008 171.826C104.456 180.557 111.176 188.876 118.418 196.728C116.963 198.159 115.474 199.536 113.955 200.869ZM125.391 189.531C120.645 184.399 115.908 178.721 111.289 172.617C115.778 172.793 120.348 172.881 125 172.881C129.775 172.881 134.502 172.778 139.16 172.568C134.861 178.453 130.266 184.114 125.391 189.531ZM186.191 203.491C184.795 211.03 181.987 216.06 178.516 218.071C171.128 222.358 155.332 216.787 138.301 202.095C136.348 200.415 134.395 198.613 132.407 196.724C139.508 188.84 146.071 180.488 152.051 171.724C162.73 170.819 173.335 169.179 183.789 166.816C184.268 168.75 184.691 170.644 185.059 172.5C187.407 184.365 187.744 195.098 186.191 203.491ZM194.688 153.374C193.408 153.799 192.09 154.209 190.752 154.609C187.474 144.433 183.508 134.492 178.882 124.853C183.335 115.344 187.145 105.546 190.288 95.5273C192.686 96.2255 195.015 96.958 197.256 97.7343C218.945 105.215 232.178 116.289 232.178 124.8C232.178 133.882 217.886 145.669 194.688 153.374Z" fill="#61DBFB"/>
<path d="M125 145.776C129.156 145.79 133.222 144.57 136.683 142.271C140.145 139.972 142.847 136.698 144.447 132.863C146.046 129.027 146.472 124.804 145.669 120.726C144.867 116.649 142.873 112.901 139.939 109.958C137.005 107.015 133.264 105.008 129.19 104.193C125.115 103.377 120.89 103.789 117.049 105.376C113.209 106.963 109.926 109.654 107.616 113.108C105.305 116.563 104.072 120.625 104.072 124.78C104.066 127.533 104.603 130.261 105.652 132.806C106.701 135.352 108.241 137.666 110.185 139.615C112.128 141.565 114.437 143.113 116.979 144.17C119.521 145.227 122.247 145.773 125 145.776Z" fill="#61DBFB"/>
</svg>
