<svg width="250" height="250" viewBox="0 0 250 250" fill="none" xmlns="http://www.w3.org/2000/svg">
<path d="M15.625 15.625V234.375H234.375V15.625H15.625ZM132.812 185.547C132.812 206.841 120.234 217.222 102.026 217.222C85.5811 217.222 76.0352 208.706 71.1914 198.428L87.9297 188.296C91.1572 194.023 93.6084 198.867 100.654 198.867C106.514 198.867 111.328 196.226 111.328 185.947V117.188H132.812V185.547ZM181.323 216.733C162.236 216.733 149.902 208.12 143.882 196.226L160.645 186.523C165.039 193.721 170.776 198.516 180.908 198.516C189.424 198.516 194.37 194.746 194.37 188.872C194.37 181.826 189.277 179.331 179.878 175.2L174.741 172.993C159.907 166.685 150.073 158.755 150.073 142.012C150.073 126.597 161.816 115.337 180.171 115.337C193.242 115.337 202.632 119.399 209.395 131.294L193.359 141.602C189.834 135.288 186.035 132.812 180.146 132.812C174.126 132.812 170.308 136.631 170.308 141.602C170.308 147.769 174.126 150.264 182.935 154.082L188.071 156.284C205.547 163.774 215.386 171.421 215.386 188.589C215.391 207.095 200.854 216.733 181.323 216.733Z" fill="#F7E018"/>
</svg>
