<svg width="358" height="358" viewBox="0 0 358 358" fill="none" xmlns="http://www.w3.org/2000/svg">
<path d="M0 179V0H358V358H0" fill="#007ACC"/>
<path d="M78.4915 179.626V194.215H125.031V326.675H158.057V194.215H204.597V179.895C204.597 171.84 204.597 165.306 204.239 165.127C204.239 164.859 175.868 164.769 141.41 164.769L78.76 165.038V179.716L78.4915 179.626V179.626ZM287.653 164.68C296.782 166.828 303.763 170.945 310.028 177.478C313.34 181.058 318.262 187.323 318.62 188.934C318.62 189.471 303.137 199.943 293.739 205.76C293.381 206.029 291.949 204.507 290.517 202.18C285.863 195.557 281.119 192.693 273.691 192.156C262.951 191.44 255.791 197.079 255.791 206.476C255.791 209.34 256.328 210.951 257.402 213.278C259.819 218.201 264.293 221.154 278.166 227.24C303.763 238.249 314.861 245.498 321.573 255.88C329.181 267.515 330.881 285.773 325.78 299.467C320.052 314.414 306.09 324.527 286.132 327.838C279.867 328.912 265.547 328.733 258.834 327.57C244.514 324.885 230.82 317.725 222.408 308.507C219.096 304.927 212.742 295.35 213.1 294.723L216.5 292.575L229.925 284.789L240.039 278.882L242.366 282.014C245.319 286.668 251.942 292.934 255.791 295.082C267.426 301.078 282.999 300.273 290.696 293.292C294.007 290.249 295.44 287.027 295.44 282.552C295.44 278.435 294.813 276.555 292.755 273.422C289.891 269.484 284.162 266.262 268.052 259.102C249.526 251.226 241.65 246.214 234.311 238.517C230.104 233.863 226.256 226.614 224.466 220.617C223.124 215.426 222.676 202.717 223.929 197.616C227.777 179.716 241.292 167.186 260.624 163.606C266.889 162.353 281.657 162.89 287.832 164.501L287.653 164.68V164.68Z" fill="white"/>
</svg>
